ffprobe started on 2016-02-24 at 14:49:39
Report written to "ffprobe-20160224-144939.log"
Command line:
ffprobe -v debug -report -print_format json -show_format -show_streams "/Volumes/Seagate Backup Plus Drive/CORO Bat Survey 2011/SOT_20Aug11/SOT_20Aug11_Cam2_Tape2.mov"
ffprobe version 2.8.5 Copyright (c) 2007-2016 the FFmpeg developers
  built with Apple LLVM version 7.0.2 (clang-700.1.81)
  configuration: --prefix=/usr/local/Cellar/ffmpeg/2.8.5 --enable-shared --enable-pthreads --enable-gpl --enable-version3 --enable-hardcoded-tables --enable-avresample --cc=clang --host-cflags= --host-ldflags= --enable-opencl --enable-libx264 --enable-libmp3lame --enable-libvo-aacenc --enable-libxvid --enable-vda
  libavutil      54. 31.100 / 54. 31.100
  libavcodec     56. 60.100 / 56. 60.100
  libavformat    56. 40.101 / 56. 40.101
  libavdevice    56.  4.100 / 56.  4.100
  libavfilter     5. 40.101 /  5. 40.101
  libavresample   2.  1.  0 /  2.  1.  0
  libswscale      3.  1.101 /  3.  1.101
  libswresample   1.  2.101 /  1.  2.101
  libpostproc    53.  3.100 / 53.  3.100
[mov,mp4,m4a,3gp,3g2,mj2 @ 0x7fc3e5007e00] Format mov,mp4,m4a,3gp,3g2,mj2 probed with size=2048 and score=100
[mov,mp4,m4a,3gp,3g2,mj2 @ 0x7fc3e5007e00] Before avformat_find_stream_info() pos: 27919160761 bytes read:1074886 seeks:6
[dvvideo @ 0x7fc3e4800800] AC EOB marker is absent pos=68
[dvvideo @ 0x7fc3e4800800] Concealing bitstream errors
[dvvideo @ 0x7fc3e4800800] AC EOB marker is absent pos=65
[dvvideo @ 0x7fc3e4800800] Concealing bitstream errors
[dvvideo @ 0x7fc3e4800800] AC EOB marker is absent pos=68
[dvvideo @ 0x7fc3e4800800] Concealing bitstream errors
[dvvideo @ 0x7fc3e4800800] AC EOB marker is absent pos=65
[dvvideo @ 0x7fc3e4800800] Concealing bitstream errors
[dvvideo @ 0x7fc3e4800800] AC EOB marker is absent pos=68
[dvvideo @ 0x7fc3e4800800] Concealing bitstream errors
[dvvideo @ 0x7fc3e4800800] AC EOB marker is absent pos=65
[dvvideo @ 0x7fc3e4800800] Concealing bitstream errors
[dvvideo @ 0x7fc3e4800800] AC EOB marker is absent pos=68
[dvvideo @ 0x7fc3e4800800] Concealing bitstream errors
[dvvideo @ 0x7fc3e4800800] AC EOB marker is absent pos=65
[dvvideo @ 0x7fc3e4800800] Concealing bitstream errors
[dvvideo @ 0x7fc3e4800800] AC EOB marker is absent pos=68
[dvvideo @ 0x7fc3e4800800] Concealing bitstream errors
[dvvideo @ 0x7fc3e4800800] AC EOB marker is absent pos=65
[dvvideo @ 0x7fc3e4800800] Concealing bitstream errors
[dvvideo @ 0x7fc3e4800800] AC EOB marker is absent pos=68
[dvvideo @ 0x7fc3e4800800] Concealing bitstream errors
[dvvideo @ 0x7fc3e4800800] AC EOB marker is absent pos=65
[dvvideo @ 0x7fc3e4800800] Concealing bitstream errors
[dvvideo @ 0x7fc3e4800800] AC EOB marker is absent pos=68
[dvvideo @ 0x7fc3e4800800] Concealing bitstream errors
[dvvideo @ 0x7fc3e4800800] AC EOB marker is absent pos=65
[dvvideo @ 0x7fc3e4800800] Concealing bitstream errors
[dvvideo @ 0x7fc3e4800800] AC EOB marker is absent pos=68
[dvvideo @ 0x7fc3e4800800] Concealing bitstream errors
[dvvideo @ 0x7fc3e4800800] AC EOB marker is absent pos=65
[dvvideo @ 0x7fc3e4800800] Concealing bitstream errors
[dvvideo @ 0x7fc3e4800800] AC EOB marker is absent pos=68
[dvvideo @ 0x7fc3e4800800] Concealing bitstream errors
[dvvideo @ 0x7fc3e4800800] AC EOB marker is absent pos=65
[dvvideo @ 0x7fc3e4800800] Concealing bitstream errors
[dvvideo @ 0x7fc3e4800800] AC EOB marker is absent pos=68
[dvvideo @ 0x7fc3e4800800] Concealing bitstream errors
[dvvideo @ 0x7fc3e4800800] AC EOB marker is absent pos=65
[dvvideo @ 0x7fc3e4800800] Concealing bitstream errors
[dvvideo @ 0x7fc3e4800800] AC EOB marker is absent pos=68
[dvvideo @ 0x7fc3e4800800] Concealing bitstream errors
[dvvideo @ 0x7fc3e4800800] AC EOB marker is absent pos=65
[dvvideo @ 0x7fc3e4800800] Concealing bitstream errors
[dvvideo @ 0x7fc3e4800800] AC EOB marker is absent pos=68
[dvvideo @ 0x7fc3e4800800] Concealing bitstream errors
[dvvideo @ 0x7fc3e4800800] AC EOB marker is absent pos=65
[dvvideo @ 0x7fc3e4800800] Concealing bitstream errors
[mov,mp4,m4a,3gp,3g2,mj2 @ 0x7fc3e5007e00] All info found
[mov,mp4,m4a,3gp,3g2,mj2 @ 0x7fc3e5007e00] After avformat_find_stream_info() pos: 1974202 bytes read:3060422 seeks:7 frames:41
Input #0, mov,mp4,m4a,3gp,3g2,mj2, from '/Volumes/Seagate Backup Plus Drive/CORO Bat Survey 2011/SOT_20Aug11/SOT_20Aug11_Cam2_Tape2.mov':
  Metadata:
    creation_time   : 2011-08-22 20:26:14
  Duration: 02:02:48.37, start: -1.722055, bitrate: 30312 kb/s
    Stream #0:0(eng), 16, 1/2997: Video: dvvideo, 1 reference frame (dvc  / 0x20637664), yuv411p(bt470bg/smpte240m/bt709, topleft), 720x480 [SAR 8:9 DAR 4:3], 1001/30000, 28764 kb/s, SAR 10:11 DAR 15:11, 29.96 fps, 29.97 tbr, 2997 tbn, 29.97 tbc (default)
    Metadata:
      creation_time   : 2011-08-22 22:30:16
      handler_name    : Apple Alias Data Handler
      encoder         : DV/DVCPRO - NTSC
    Stream #0:1(eng), 24, 1/47997: Audio: pcm_s16le (sowt / 0x74776F73), 47997 Hz, mono, s16, 767 kb/s (default)
    Metadata:
      creation_time   : 2011-08-23 07:39:22
      handler_name    : Apple Alias Data Handler
    Stream #0:2(eng), 1, 1/47997: Audio: pcm_s16le (sowt / 0x74776F73), 47997 Hz, mono, s16, 767 kb/s (default)
    Metadata:
      creation_time   : 2011-08-23 07:39:22
      handler_name    : Apple Alias Data Handler
detected 4 logical cores
[AVIOContext @ 0x7fc3e3e08800] Statistics: 3060422 bytes read, 7 seeks
